<svg width="198" height="54" viewBox="0 0 198 54" fill="none" xmlns="http://www.w3.org/2000/svg">
<g clip-path="url(#clip0)">
<path d="M93.07 0H197V53.81H97.71C96.4794 53.81 95.2992 53.3211 94.429 52.451C93.5589 51.5808 93.07 50.4006 93.07 49.17V0Z" fill="#131819"/>
<path d="M12.74 34.23C12.9859 34.5043 13.1181 34.8618 13.11 35.23C13.1157 35.4189 13.0791 35.6067 13.003 35.7797C12.9269 35.9527 12.8131 36.1066 12.67 36.23C12.3707 36.5047 11.9761 36.6518 11.57 36.64H10.79C9.58161 36.6587 8.39152 36.3437 7.35059 35.7297C6.30966 35.1158 5.45823 34.2266 4.88998 33.16C4.30299 32.045 4.00719 30.7998 4.03 29.54V19.71H1.63001C1.45771 19.7192 1.28535 19.6928 1.12366 19.6326C0.961963 19.5724 0.814373 19.4796 0.690003 19.36C0.577869 19.2473 0.489885 19.1129 0.431428 18.965C0.37297 18.8172 0.34527 18.6589 0.350007 18.5C0.342125 18.3347 0.368217 18.1696 0.426697 18.0148C0.485178 17.86 0.574801 17.7188 0.690003 17.6C0.814373 17.4804 0.961963 17.3876 1.12366 17.3274C1.28535 17.2672 1.45771 17.2409 1.63001 17.25H4.03V11.54C4.02252 11.1701 4.15873 10.8116 4.41 10.54C4.53995 10.4078 4.69591 10.304 4.86804 10.2351C5.04017 10.1663 5.22472 10.1339 5.41 10.14C5.59492 10.1368 5.77861 10.1705 5.95032 10.2392C6.12203 10.3079 6.27831 10.4102 6.41 10.54C6.54075 10.6715 6.64425 10.8276 6.7146 10.9992C6.78495 11.1708 6.82079 11.3546 6.82001 11.54V17.32H10.97C11.1425 17.309 11.3153 17.3345 11.4773 17.3948C11.6393 17.4551 11.7867 17.5489 11.91 17.67C12.0285 17.7869 12.121 17.9274 12.1813 18.0826C12.2416 18.2377 12.2684 18.4038 12.26 18.57C12.2652 18.7299 12.2368 18.8891 12.1765 19.0373C12.1162 19.1854 12.0254 19.3192 11.91 19.43C11.7867 19.5511 11.6393 19.6449 11.4773 19.7052C11.3153 19.7655 11.1425 19.791 10.97 19.78H6.82001V29.61C6.77784 30.7368 7.17182 31.8364 7.91998 32.68C8.27945 33.0688 8.71798 33.3762 9.20612 33.5815C9.69425 33.7867 10.2207 33.8851 10.75 33.87H11.75C11.9314 33.8522 12.1145 33.8754 12.2859 33.9377C12.4572 34 12.6124 34.0999 12.74 34.23Z" fill="white"/>
<path d="M11.57 36.9999H10.79C9.51768 37.0239 8.26365 36.6944 7.16733 36.0483C6.07101 35.4022 5.17538 34.4646 4.58002 33.3399C3.96676 32.1721 3.65726 30.8688 3.68003 29.5499V20.0799H1.63004C1.41317 20.0883 1.19683 20.0528 0.994051 19.9755C0.791271 19.8981 0.606218 19.7806 0.450014 19.6299C0.303264 19.4854 0.18765 19.3123 0.110262 19.1214C0.0328736 18.9306 -0.00463439 18.7259 3.24109e-05 18.5199C-0.00659139 18.3078 0.0298649 18.0965 0.10721 17.8988C0.184555 17.7012 0.301165 17.5212 0.450014 17.3699C0.606218 17.2193 0.791271 17.1017 0.994051 17.0244C1.19683 16.9471 1.41317 16.9115 1.63004 16.9199H3.68003V11.5599C3.66704 11.09 3.83947 10.6338 4.16004 10.2899C4.32256 10.1213 4.51871 9.98879 4.73578 9.90093C4.95285 9.81307 5.18598 9.77184 5.42002 9.77993C5.65685 9.77331 5.89257 9.81515 6.11267 9.90285C6.33277 9.99055 6.53262 10.1223 6.70001 10.2899C6.86741 10.4555 6.99904 10.6536 7.08676 10.872C7.17449 11.0905 7.21645 11.3246 7.21002 11.5599V16.9199H11.01C11.2285 16.9102 11.4468 16.9451 11.6514 17.0224C11.856 17.0998 12.0426 17.218 12.2 17.3699C12.3489 17.5212 12.4655 17.7012 12.5428 17.8988C12.6202 18.0965 12.6567 18.3078 12.65 18.5199C12.6541 18.7258 12.6163 18.9303 12.539 19.1211C12.4616 19.3119 12.3463 19.485 12.2 19.6299C12.0426 19.7818 11.856 19.9001 11.6514 19.9775C11.4468 20.0548 11.2285 20.0897 11.01 20.0799H7.21002V29.5499C7.16074 30.5907 7.51952 31.6097 8.21002 32.3899C8.53365 32.7466 8.93142 33.0281 9.3754 33.2146C9.81937 33.4012 10.2988 33.4883 10.78 33.4699H11.78C12.0073 33.4645 12.233 33.5081 12.4418 33.5979C12.6506 33.6876 12.8376 33.8213 12.99 33.9899V33.9899C13.3024 34.3375 13.4674 34.7929 13.45 35.2599C13.4516 35.4953 13.4034 35.7283 13.3086 35.9437C13.2138 36.1591 13.0746 36.3521 12.9 36.5099C12.5359 36.8378 12.0598 37.0132 11.57 36.9999V36.9999ZM1.63004 17.6199C1.378 17.61 1.13154 17.6958 0.940035 17.8599C0.856514 17.9478 0.791376 18.0514 0.748446 18.1647C0.705515 18.2781 0.685656 18.3988 0.690035 18.5199C0.686445 18.635 0.706811 18.7495 0.749849 18.8562C0.792887 18.963 0.857657 19.0596 0.940035 19.1399C1.13154 19.3041 1.378 19.3898 1.63004 19.3799H4.37003V29.5499C4.35028 30.7548 4.6358 31.9451 5.20001 33.0099C5.73671 34.0221 6.54294 34.8661 7.52951 35.4485C8.51608 36.0309 9.64452 36.329 10.79 36.3099H11.57C11.8878 36.3214 12.1971 36.2063 12.43 35.9899C12.5371 35.9015 12.6225 35.7897 12.6797 35.6632C12.7369 35.5367 12.7643 35.3987 12.76 35.2599C12.7727 34.969 12.6765 34.6837 12.49 34.4599V34.4599C12.4006 34.3647 12.292 34.2895 12.1713 34.2395C12.0506 34.1895 11.9206 34.1658 11.79 34.1699H10.79C10.2125 34.187 9.63811 34.0787 9.10642 33.8526C8.57472 33.6264 8.09833 33.2878 7.71002 32.8599C6.89443 31.9549 6.46392 30.7674 6.51001 29.5499V19.3799H11.01C11.2654 19.3924 11.516 19.3065 11.71 19.1399C11.7911 19.0591 11.8544 18.9621 11.8957 18.8553C11.937 18.7486 11.9555 18.6343 11.95 18.5199C11.9557 18.3995 11.9375 18.2792 11.8963 18.1659C11.8551 18.0526 11.7918 17.9486 11.71 17.8599C11.516 17.6934 11.2654 17.6075 11.01 17.6199H6.51001V11.5599C6.51547 11.4164 6.4917 11.2732 6.44013 11.1391C6.38856 11.005 6.31028 10.8828 6.21002 10.7799C6.10527 10.6794 5.98132 10.601 5.84558 10.5495C5.70985 10.4979 5.5651 10.4743 5.42002 10.4799C5.28009 10.4723 5.14014 10.4942 5.00922 10.5442C4.87829 10.5941 4.75932 10.6711 4.66004 10.7699C4.46526 10.9861 4.36138 11.2691 4.37003 11.5599V17.6199H1.63004Z" fill="white"/>
<path d="M21.63 35.5201C20.0954 34.6571 18.8288 33.3871 17.97 31.85C17.0743 30.2504 16.6156 28.4432 16.64 26.61C16.6182 24.7709 17.0766 22.9578 17.97 21.35C18.8227 19.8058 20.0905 18.5311 21.63 17.67C23.2378 16.8001 25.037 16.3445 26.865 16.3445C28.6931 16.3445 30.4923 16.8001 32.1 17.67C33.6311 18.5423 34.8961 19.8143 35.76 21.35C36.6352 22.9615 37.0937 24.7662 37.0937 26.6C37.0937 28.4338 36.6352 30.2386 35.76 31.85C34.8948 33.3856 33.6256 34.6548 32.09 35.5201C30.4794 36.3866 28.679 36.8401 26.85 36.8401C25.0211 36.8401 23.2207 36.3866 21.61 35.5201H21.63ZM30.7 33.2701C31.8198 32.6194 32.7372 31.6709 33.35 30.53C33.9748 29.3124 34.3006 27.9636 34.3006 26.595C34.3006 25.2265 33.9748 23.8776 33.35 22.66C32.7372 21.5191 31.8198 20.5707 30.7 19.92C29.5335 19.2648 28.218 18.9206 26.88 18.9206C25.5421 18.9206 24.2266 19.2648 23.06 19.92C21.9311 20.5688 21.0036 21.517 20.38 22.66C19.7365 23.8718 19.4 25.223 19.4 26.595C19.4 27.9671 19.7365 29.3182 20.38 30.53C21.0036 31.673 21.9311 32.6213 23.06 33.2701C24.2284 33.9198 25.5432 34.2607 26.88 34.2607C28.2169 34.2607 29.5317 33.9198 30.7 33.2701Z" fill="white"/>
<path d="M26.87 37.19C24.9676 37.2204 23.091 36.7478 21.43 35.82V35.82C19.8431 34.9279 18.532 33.6168 17.64 32.03C16.7182 30.3738 16.2458 28.5053 16.27 26.61C16.2475 24.713 16.716 22.8424 17.63 21.18C18.5223 19.5847 19.8371 18.2664 21.43 17.37C23.0897 16.4711 24.9475 16.0004 26.835 16.0004C28.7225 16.0004 30.5802 16.4711 32.24 17.37C33.8273 18.2704 35.138 19.5879 36.03 21.18C36.9359 22.8447 37.4104 24.7098 37.4104 26.605C37.4104 28.5002 36.9359 30.3653 36.03 32.03C35.1351 33.6146 33.8247 34.9251 32.24 35.82C30.5986 36.7334 28.7484 37.2054 26.87 37.19V37.19ZM21.8 35.19C23.3578 36.0302 25.1 36.4701 26.87 36.4701C28.64 36.4701 30.3822 36.0302 31.94 35.19C33.4214 34.3637 34.6437 33.1414 35.47 31.66C36.3163 30.1005 36.7596 28.3543 36.7596 26.58C36.7596 24.8057 36.3163 23.0594 35.47 21.5C34.6359 20.0193 33.4159 18.7925 31.94 17.95C30.3966 17.0925 28.6554 16.6546 26.89 16.68C25.1187 16.6585 23.372 17.0961 21.82 17.95C20.3397 18.7868 19.1184 20.015 18.29 21.5C17.4279 23.0565 16.9867 24.8109 17.01 26.59C16.9842 28.363 17.4256 30.1116 18.29 31.66C19.1221 33.137 20.343 34.3578 21.82 35.19H21.8ZM26.87 34.59C25.4713 34.62 24.09 34.2747 22.87 33.59C21.6877 32.906 20.7131 31.9141 20.05 30.72C19.3801 29.4554 19.0299 28.0461 19.0299 26.615C19.0299 25.1839 19.3801 23.7746 20.05 22.51C20.7124 21.3128 21.687 20.3175 22.87 19.63C24.0922 18.9459 25.4694 18.5867 26.87 18.5867C28.2706 18.5867 29.6478 18.9459 30.87 19.63C32.0384 20.3198 32.9961 21.3156 33.64 22.51C34.2967 23.7787 34.6394 25.1864 34.6394 26.615C34.6394 28.0436 34.2967 29.4513 33.64 30.72C32.9959 31.9115 32.038 32.9041 30.87 33.59V33.59C29.6519 34.2816 28.2706 34.6339 26.87 34.61V34.59ZM26.87 19.25C25.5967 19.2354 24.3429 19.5635 23.24 20.2C22.1653 20.8212 21.2803 21.7235 20.68 22.81C20.0695 23.971 19.7505 25.2632 19.7505 26.575C19.7505 27.8868 20.0695 29.1789 20.68 30.34C21.2831 31.4243 22.1675 32.326 23.24 32.95C24.3521 33.5727 25.6054 33.8997 26.88 33.8997C28.1546 33.8997 29.4079 33.5727 30.52 32.95C31.5853 32.3299 32.4577 31.4264 33.04 30.34C33.6618 29.189 33.9786 27.898 33.96 26.59C33.9796 25.2691 33.663 23.9649 33.04 22.8C32.4575 21.7163 31.585 20.816 30.52 20.2C29.4049 19.583 28.1437 19.279 26.87 19.32V19.25Z" fill="white"/>
<path d="M62.01 17.93V26.57C62.0311 28.4009 61.5688 30.2049 60.67 31.8C59.7963 33.3403 58.5255 34.618 56.99 35.5C55.3942 36.3789 53.6019 36.8398 51.78 36.8398C49.9582 36.8398 48.1659 36.3789 46.57 35.5C45.0345 34.618 43.7637 33.3403 42.89 31.8C42.0209 30.1992 41.5657 28.4066 41.5657 26.585C41.5657 24.7635 42.0209 22.9708 42.89 21.37C43.7393 19.8318 44.9912 18.5538 46.5115 17.673C48.0318 16.7921 49.7632 16.3417 51.52 16.37C53.036 16.346 54.5353 16.6891 55.89 17.37C57.1919 18.0181 58.3173 18.9719 59.17 20.15V9.32001C59.1668 9.1351 59.2005 8.95141 59.2692 8.7797C59.3379 8.60798 59.4402 8.4517 59.57 8.32001C59.7016 8.18926 59.8576 8.08574 60.0292 8.01538C60.2008 7.94503 60.3846 7.90922 60.57 7.91001C60.7562 7.90392 60.9416 7.9373 61.1139 8.00797C61.2863 8.07863 61.4417 8.18498 61.57 8.32001C61.8259 8.58948 61.9659 8.94849 61.96 9.32001V17.56C62.0018 17.6786 62.0188 17.8045 62.01 17.93V17.93ZM55.57 33.25C56.6926 32.5875 57.6151 31.6339 58.24 30.49C58.9084 29.2925 59.253 27.9414 59.24 26.57C59.24 26.16 59.24 25.85 59.24 25.66C59.2239 25.5977 59.2239 25.5323 59.24 25.47C59.0418 23.6575 58.1841 21.9811 56.83 20.76C55.4747 19.5384 53.7042 18.8802 51.88 18.92C50.5429 18.902 49.226 19.2477 48.07 19.92C46.9411 20.5687 46.0136 21.517 45.39 22.66C44.7466 23.8647 44.41 25.2093 44.41 26.575C44.41 27.9407 44.7466 29.2854 45.39 30.49C46.0157 31.6367 46.9423 32.5909 48.07 33.25C49.2242 33.9266 50.5423 34.2726 51.88 34.25C53.1777 34.2558 54.4528 33.9102 55.57 33.25V33.25Z" fill="white"/>
<path d="M51.78 37.19C49.8953 37.2109 48.0387 36.7313 46.4 35.8C44.8052 34.8938 43.4879 33.5696 42.59 31.97C41.6598 30.3236 41.1803 28.461 41.2 26.57C41.1812 24.6938 41.6461 22.8443 42.55 21.2C43.4174 19.6198 44.6958 18.3033 46.25 17.39C47.8385 16.4607 49.6497 15.9802 51.49 16C53.0622 15.9831 54.6156 16.3432 56.02 17.05C57.0658 17.5761 58.005 18.2915 58.79 19.16V9.32004C58.7834 9.0832 58.8252 8.84751 58.9129 8.62741C59.0006 8.40731 59.1323 8.20743 59.3 8.04004C59.6398 7.70896 60.0956 7.52368 60.57 7.52368C61.0445 7.52368 61.5002 7.70896 61.84 8.04004C62.0001 8.2094 62.125 8.40888 62.2074 8.62689C62.2898 8.84491 62.3281 9.0771 62.32 9.31003V17.5C62.3326 17.6264 62.3326 17.7537 62.32 17.88V26.5201C62.3397 28.411 61.8602 30.2736 60.93 31.92C60.0293 33.5175 58.7127 34.841 57.12 35.75C55.4979 36.6919 53.6558 37.1887 51.78 37.19V37.19ZM51.49 16.7C49.7924 16.6715 48.1192 17.1072 46.6511 17.9602C45.1831 18.8132 43.9759 20.0511 43.16 21.54C42.3198 23.0889 41.8797 24.823 41.8797 26.5851C41.8797 28.3471 42.3198 30.0812 43.16 31.63C43.9979 33.1198 45.225 34.3538 46.71 35.2C48.2514 36.0465 49.9815 36.4903 51.74 36.4903C53.4985 36.4903 55.2286 36.0465 56.77 35.2C58.255 34.3538 59.4821 33.1198 60.32 31.63C61.1905 30.0869 61.6389 28.3416 61.62 26.57V17.93C61.6276 17.8535 61.6276 17.7765 61.62 17.7V17.6V9.32004C61.6282 9.17554 61.6066 9.03089 61.5568 8.89502C61.5069 8.75915 61.4297 8.63494 61.33 8.53003C61.2316 8.42934 61.113 8.35059 60.982 8.29889C60.8511 8.24719 60.7107 8.22372 60.57 8.23004C60.4265 8.22458 60.2833 8.24836 60.1492 8.29993C60.0151 8.3515 59.8929 8.42978 59.79 8.53003C59.6894 8.63478 59.6111 8.75873 59.5595 8.89447C59.508 9.03021 59.4843 9.17495 59.49 9.32004V21.17L58.86 20.3C58.0327 19.1764 56.954 18.262 55.71 17.63C54.3976 16.9879 52.9507 16.6691 51.49 16.7V16.7ZM51.78 34.61C50.3747 34.6304 48.9908 34.2637 47.78 33.55C46.5994 32.8584 45.6283 31.8596 44.97 30.66C44.3003 29.4026 43.95 27.9997 43.95 26.575C43.95 25.1504 44.3003 23.7475 44.97 22.4901C45.6325 21.2928 46.607 20.2975 47.79 19.61C49.01 18.9253 50.3913 18.58 51.79 18.61C53.6996 18.5694 55.5526 19.2598 56.97 20.54C58.3891 21.8164 59.2866 23.5722 59.49 25.47V25.55V25.6V25.65C59.5115 25.983 59.5115 26.317 59.49 26.65C59.5174 28.0771 59.1728 29.4867 58.49 30.7401C57.8332 31.9341 56.8702 32.9317 55.7 33.63V33.63C54.5064 34.3063 53.1514 34.6451 51.78 34.61V34.61ZM51.78 19.2701C50.5067 19.2555 49.2529 19.5836 48.15 20.22C47.0753 20.8412 46.1903 21.7436 45.59 22.83C44.9788 23.9837 44.6593 25.2695 44.6593 26.575C44.6593 27.8806 44.9788 29.1663 45.59 30.32C46.1995 31.4226 47.0933 32.3416 48.1783 32.9817C49.2634 33.6217 50.5002 33.9592 51.76 33.9592C53.0198 33.9592 54.2566 33.6217 55.3416 32.9817C56.4267 32.3416 57.3205 31.4226 57.93 30.32C58.5609 29.1722 58.8814 27.8796 58.86 26.57C58.86 26.21 58.86 25.9301 58.86 25.7401C58.8488 25.6604 58.8488 25.5796 58.86 25.5C58.6664 23.778 57.8524 22.1855 56.57 21.0201C55.251 19.8592 53.5358 19.2504 51.78 19.32V19.2701Z" fill="white"/>
<path d="M72.55 35.5201C71.0153 34.6571 69.7488 33.3871 68.89 31.85C67.9898 30.2522 67.5308 28.4438 67.56 26.61C67.5335 24.7703 67.9922 22.956 68.89 21.35C69.7426 19.8058 71.0105 18.5311 72.55 17.67C74.1578 16.8001 75.957 16.3445 77.785 16.3445C79.6131 16.3445 81.4123 16.8001 83.02 17.67C84.551 18.5423 85.8161 19.8143 86.68 21.35C87.5813 22.9551 88.0435 24.7694 88.02 26.61C88.0492 28.4438 87.5902 30.2522 86.69 31.85C85.8313 33.3871 84.5647 34.6571 83.03 35.5201C81.4194 36.3866 79.619 36.8401 77.79 36.8401C75.9611 36.8401 74.1607 36.3866 72.55 35.5201V35.5201ZM81.62 33.2701C82.7398 32.6194 83.6572 31.6709 84.27 30.53C84.8947 29.3124 85.2206 27.9636 85.2206 26.595C85.2206 25.2265 84.8947 23.8776 84.27 22.66C83.6572 21.5191 82.7398 20.5707 81.62 19.92C80.4535 19.2648 79.138 18.9206 77.8 18.9206C76.462 18.9206 75.1465 19.2648 73.98 19.92C72.8511 20.5688 71.9236 21.517 71.3 22.66C70.6565 23.8718 70.32 25.223 70.32 26.595C70.32 27.9671 70.6565 29.3182 71.3 30.53C71.9236 31.673 72.8511 32.6213 73.98 33.2701C75.1484 33.9198 76.4632 34.2607 77.8 34.2607C79.1369 34.2607 80.4517 33.9198 81.62 33.2701V33.2701Z" fill="white"/>
<path d="M77.79 37.19C75.9147 37.2064 74.0674 36.7343 72.43 35.82C70.8417 34.9265 69.5277 33.616 68.63 32.03C67.7312 30.363 67.2606 28.4988 67.2606 26.605C67.2606 24.7111 67.7312 22.8469 68.63 21.18C69.5223 19.5847 70.8371 18.2664 72.43 17.37C74.0898 16.4711 75.9475 16.0004 77.835 16.0004C79.7225 16.0004 81.5803 16.4711 83.24 17.37C84.8273 18.2704 86.138 19.5879 87.03 21.18C87.9359 22.8447 88.4105 24.7098 88.4105 26.605C88.4105 28.5002 87.9359 30.3653 87.03 32.03C86.1351 33.6146 84.8247 34.9251 83.24 35.82C81.575 36.7469 79.6954 37.2194 77.79 37.19V37.19ZM72.72 35.19C74.2778 36.0302 76.02 36.4701 77.79 36.4701C79.56 36.4701 81.3022 36.0302 82.86 35.19C84.3392 34.3607 85.5608 33.1392 86.39 31.66C87.2364 30.1005 87.6797 28.3543 87.6797 26.58C87.6797 24.8057 87.2364 23.0594 86.39 21.5C85.5559 20.0193 84.336 18.7925 82.86 17.95C81.3166 17.0925 79.5754 16.6546 77.81 16.68C76.0386 16.6571 74.2915 17.0948 72.74 17.95C71.2597 18.7868 70.0384 20.015 69.21 21.5C68.348 23.0565 67.9068 24.8109 67.93 26.59C67.9042 28.363 68.3457 30.1116 69.21 31.66C70.0422 33.137 71.263 34.3578 72.74 35.19H72.72ZM77.79 34.59C76.3913 34.62 75.0101 34.2747 73.79 33.59C72.6077 32.906 71.6331 31.9141 70.97 30.72C70.3002 29.4554 69.95 28.0461 69.95 26.615C69.95 25.1839 70.3002 23.7746 70.97 22.51C71.6325 21.3128 72.607 20.3175 73.79 19.63C75.0116 18.9441 76.389 18.5838 77.79 18.5838C79.191 18.5838 80.5684 18.9441 81.79 19.63C82.9637 20.3164 83.9255 21.3128 84.57 22.51C85.2267 23.7787 85.5695 25.1864 85.5695 26.615C85.5695 28.0436 85.2267 29.4513 84.57 30.72C83.9249 31.9141 82.963 32.9071 81.79 33.59V33.59C80.573 34.2844 79.1909 34.6369 77.79 34.61V34.59ZM77.79 19.25C76.5167 19.2354 75.263 19.5635 74.16 20.2C73.0854 20.8212 72.2003 21.7235 71.6 22.81C70.9895 23.971 70.6705 25.2632 70.6705 26.575C70.6705 27.8868 70.9895 29.1789 71.6 30.34C72.2032 31.4243 73.0875 32.326 74.16 32.95C75.2721 33.5727 76.5254 33.8997 77.8 33.8997C79.0746 33.8997 80.3279 33.5727 81.44 32.95C82.5054 32.3299 83.3777 31.4264 83.96 30.34C84.5788 29.1883 84.8921 27.8972 84.87 26.59C84.8932 25.2699 84.58 23.9656 83.96 22.8C83.3775 21.7163 82.505 20.816 81.44 20.2C80.3244 19.5844 79.0636 19.2805 77.79 19.32V19.25Z" fill="white"/>
<path d="M105 34.87C104.01 33.5542 103.508 31.9351 103.58 30.29V9.31998C103.575 9.13388 103.608 8.94872 103.679 8.77646C103.749 8.6042 103.855 8.44868 103.99 8.31998C104.122 8.19101 104.278 8.09 104.45 8.02298C104.622 7.95597 104.806 7.92431 104.99 7.92996C105.178 7.91571 105.368 7.94149 105.546 8.00562C105.723 8.06974 105.886 8.17076 106.022 8.30204C106.158 8.43331 106.264 8.5919 106.335 8.76734C106.405 8.94277 106.438 9.13111 106.43 9.31998V30.32C106.389 31.2238 106.612 32.1199 107.07 32.9C107.231 33.1966 107.467 33.4455 107.755 33.6211C108.043 33.7968 108.373 33.893 108.71 33.9H109.63C109.797 33.8933 109.963 33.925 110.115 33.9926C110.268 34.0602 110.403 34.1619 110.51 34.29C110.739 34.5716 110.856 34.9275 110.84 35.29C110.845 35.4808 110.807 35.6704 110.727 35.8438C110.647 36.0173 110.529 36.17 110.38 36.29C110.045 36.5615 109.621 36.7003 109.19 36.68H108.71C107.991 36.7004 107.279 36.5464 106.632 36.2312C105.986 35.916 105.426 35.4489 105 34.87V34.87Z" fill="#51C6E3"/>
<path d="M109.14 36.83H108.66C107.926 36.8437 107.198 36.6832 106.538 36.3617C105.877 36.0401 105.302 35.5666 104.86 34.98C103.869 33.6338 103.364 31.9906 103.43 30.32V9.32C103.421 9.10811 103.457 8.89666 103.536 8.69997C103.615 8.50328 103.736 8.32595 103.89 8.17998C104.037 8.03778 104.211 7.92648 104.401 7.85262C104.592 7.77877 104.796 7.74386 105 7.74999C105.21 7.7368 105.42 7.76838 105.616 7.84261C105.813 7.91685 105.991 8.03206 106.139 8.18056C106.288 8.32907 106.403 8.50748 106.477 8.70394C106.552 8.9004 106.583 9.1104 106.57 9.32V30.32C106.532 31.1893 106.747 32.0509 107.19 32.8C107.333 33.0727 107.547 33.302 107.809 33.4638C108.071 33.6257 108.372 33.7141 108.68 33.72H109.6C109.789 33.717 109.975 33.7548 110.148 33.8308C110.321 33.9067 110.475 34.019 110.6 34.16C110.853 34.4811 110.984 34.8814 110.97 35.29C110.976 35.507 110.932 35.7225 110.842 35.92C110.751 36.1175 110.618 36.2919 110.45 36.43C110.074 36.7133 109.61 36.855 109.14 36.83ZM104.98 8.1C104.658 8.09074 104.345 8.20937 104.11 8.42998C103.992 8.54493 103.899 8.68377 103.839 8.83724C103.779 8.99071 103.752 9.15529 103.76 9.32V30.32C103.694 31.9242 104.181 33.5024 105.14 34.79C105.549 35.3344 106.081 35.7741 106.693 36.073C107.305 36.372 107.979 36.5218 108.66 36.51H109.14C109.529 36.5294 109.912 36.4087 110.22 36.17C110.349 36.0635 110.453 35.9288 110.522 35.7763C110.591 35.6238 110.625 35.4575 110.62 35.29C110.635 34.9648 110.532 34.6452 110.33 34.39C110.238 34.2814 110.123 34.1952 109.993 34.138C109.863 34.0808 109.722 34.0541 109.58 34.06H108.66C108.295 34.0542 107.939 33.9523 107.626 33.7644C107.314 33.5765 107.056 33.3094 106.88 32.99C106.398 32.1854 106.161 31.2573 106.2 30.32V9.32C106.212 9.15673 106.189 8.9928 106.131 8.83938C106.074 8.68595 105.985 8.54662 105.869 8.43087C105.753 8.31511 105.614 8.22563 105.461 8.16854C105.307 8.11144 105.143 8.08807 104.98 8.1V8.1Z" fill="#50C7E4"/>
<path d="M109.14 37.17H108.66C107.872 37.1809 107.093 37.0055 106.385 36.6579C105.678 36.3103 105.063 35.8005 104.59 35.17C103.537 33.7591 103 32.0292 103.07 30.27V9.31995C103.062 9.06217 103.108 8.80562 103.205 8.56641C103.301 8.3272 103.446 8.11049 103.63 7.92994C103.992 7.58171 104.478 7.39115 104.98 7.39994C105.235 7.3901 105.489 7.43306 105.726 7.52607C105.964 7.61907 106.179 7.76015 106.36 7.94043C106.54 8.12072 106.681 8.33631 106.774 8.5737C106.867 8.8111 106.91 9.06517 106.9 9.31995V30.32C106.86 31.1203 107.05 31.9153 107.45 32.61C107.565 32.8336 107.738 33.0222 107.951 33.1559C108.164 33.2897 108.409 33.3636 108.66 33.3699H109.58C109.821 33.3646 110.06 33.413 110.279 33.5116C110.499 33.6102 110.694 33.7565 110.85 33.9399C111.164 34.3181 111.328 34.7987 111.31 35.29C111.314 35.5577 111.259 35.823 111.148 36.0668C111.038 36.3107 110.874 36.5269 110.67 36.7C110.23 37.0301 109.689 37.1963 109.14 37.17V37.17ZM104.98 8.43994C104.863 8.43467 104.745 8.45323 104.635 8.49448C104.525 8.53573 104.425 8.59879 104.34 8.67994C104.257 8.76383 104.193 8.86417 104.152 8.97443C104.111 9.08469 104.093 9.20241 104.1 9.31995V30.32C104.037 31.8464 104.495 33.349 105.4 34.58C105.78 35.0831 106.273 35.4894 106.839 35.7657C107.406 36.042 108.03 36.1805 108.66 36.17H109.14C109.45 36.1881 109.756 36.0921 110 35.8999C110.093 35.8286 110.167 35.7359 110.215 35.6296C110.264 35.5233 110.286 35.4067 110.28 35.29C110.296 35.0452 110.221 34.8032 110.07 34.61C110.01 34.5408 109.934 34.4867 109.849 34.4519C109.764 34.4172 109.672 34.4028 109.58 34.4099H108.66C108.238 34.4024 107.825 34.2851 107.462 34.0694C107.099 33.8537 106.798 33.5471 106.59 33.1799C106.077 32.3165 105.824 31.3236 105.86 30.32V9.31995C105.873 9.2013 105.859 9.08134 105.819 8.96885C105.779 8.85635 105.715 8.75417 105.63 8.6698C105.546 8.58543 105.444 8.521 105.331 8.48124C105.219 8.44147 105.099 8.42735 104.98 8.43994V8.43994Z" fill="#50C7E4"/>
<path d="M127.43 17.62C128.828 18.4563 129.959 19.6739 130.69 21.13C131.483 22.715 131.881 24.4681 131.85 26.24C131.86 26.4141 131.832 26.5882 131.768 26.7504C131.704 26.9127 131.606 27.0592 131.48 27.18C131.347 27.3047 131.189 27.4003 131.017 27.4606C130.845 27.5208 130.662 27.5445 130.48 27.53H115.65C115.766 29.417 116.618 31.1832 118.022 32.449C119.426 33.7149 121.271 34.3795 123.16 34.3C124.066 34.2975 124.966 34.1419 125.82 33.84C126.609 33.5987 127.343 33.2046 127.98 32.68C128.261 32.4459 128.614 32.3153 128.98 32.31C129.275 32.3193 129.56 32.4246 129.79 32.61C129.938 32.7314 130.058 32.8839 130.141 33.0567C130.224 33.2294 130.268 33.4183 130.27 33.61C130.267 33.7728 130.229 33.9331 130.158 34.0798C130.087 34.2265 129.986 34.3562 129.86 34.46C128.941 35.2109 127.894 35.7902 126.77 36.17C125.333 36.7097 123.797 36.9328 122.266 36.824C120.735 36.7153 119.246 36.2773 117.9 35.54C116.376 34.6894 115.122 33.4282 114.28 31.9C113.394 30.2829 112.943 28.4636 112.97 26.62C112.935 24.7744 113.362 22.9493 114.21 21.31C114.985 19.7965 116.17 18.5316 117.63 17.66C119.145 16.775 120.876 16.3252 122.63 16.36C124.316 16.325 125.978 16.7614 127.43 17.62V17.62ZM117.98 20.62C116.721 21.8352 115.926 23.4513 115.73 25.19H129.2C129.08 23.4697 128.35 21.8489 127.14 20.62C126.538 20.0448 125.828 19.5962 125.049 19.3007C124.271 19.0053 123.442 18.869 122.61 18.9C120.898 18.8353 119.23 19.45 117.97 20.61L117.98 20.62Z" fill="#51C6E3"/>
<path d="M123.16 37.01C121.292 37.0428 119.448 36.5878 117.81 35.69C116.258 34.8214 114.98 33.5364 114.12 31.98C113.221 30.3345 112.763 28.4847 112.79 26.61C112.759 24.7349 113.188 22.8808 114.04 21.21C114.842 19.6772 116.049 18.3939 117.53 17.5C119.068 16.6041 120.821 16.1443 122.6 16.17C124.325 16.141 126.025 16.591 127.51 17.47V17.47C128.931 18.3276 130.082 19.5684 130.83 21.05C131.638 22.659 132.043 24.44 132.01 26.24C132.018 26.4378 131.985 26.6351 131.913 26.8194C131.841 27.0037 131.731 27.1708 131.59 27.31C131.296 27.5789 130.908 27.7225 130.51 27.71H115.84C116.003 29.5152 116.854 31.1886 118.216 32.3837C119.579 33.5788 121.349 34.2041 123.16 34.13C124.049 34.1251 124.931 33.9731 125.77 33.68C126.532 33.4386 127.241 33.0552 127.86 32.55C128.132 32.3061 128.48 32.1646 128.846 32.15C129.211 32.1354 129.569 32.2485 129.86 32.47C130.027 32.6078 130.163 32.7801 130.258 32.9751C130.353 33.1701 130.405 33.3832 130.41 33.6C130.413 33.7904 130.373 33.979 130.293 34.152C130.213 34.325 130.096 34.478 129.95 34.6C129.011 35.3611 127.944 35.9501 126.8 36.34C125.635 36.7725 124.403 36.9992 123.16 37.01V37.01ZM122.6 16.52C120.884 16.4917 119.192 16.9344 117.71 17.8C116.277 18.656 115.113 19.8962 114.35 21.38C113.525 22.9982 113.11 24.794 113.14 26.61C113.112 28.4246 113.553 30.2156 114.42 31.81C115.251 33.3086 116.484 34.5452 117.98 35.38C119.303 36.1062 120.767 36.5376 122.272 36.6447C123.777 36.7517 125.288 36.5318 126.7 36C127.789 35.6174 128.804 35.049 129.7 34.32C129.803 34.2297 129.886 34.1192 129.945 33.9953C130.003 33.8715 130.036 33.7369 130.04 33.6C130.036 33.4349 129.996 33.2726 129.924 33.1242C129.851 32.9758 129.748 32.8448 129.62 32.74C129.389 32.5654 129.104 32.4777 128.815 32.4923C128.526 32.5069 128.252 32.623 128.04 32.82C127.388 33.3511 126.641 33.7547 125.84 34.01C124.965 34.3145 124.046 34.4733 123.12 34.48C121.19 34.5493 119.309 33.8646 117.876 32.5711C116.442 31.2775 115.569 29.4766 115.44 27.55V27.36H130.49C130.799 27.3749 131.101 27.267 131.33 27.06C131.436 26.9522 131.518 26.8237 131.571 26.6826C131.624 26.5414 131.648 26.3907 131.64 26.24C131.666 24.5061 131.275 22.7914 130.5 21.24C129.784 19.814 128.678 18.6209 127.31 17.8C125.889 16.9443 124.258 16.501 122.6 16.52ZM129.43 25.32H115.52V25.12C115.724 23.3473 116.537 21.7004 117.82 20.46C119.108 19.2652 120.814 18.6257 122.57 18.68C123.425 18.6504 124.277 18.7927 125.075 19.0985C125.874 19.4042 126.603 19.8672 127.22 20.46C128.456 21.7167 129.204 23.3722 129.33 25.13L129.43 25.32ZM115.98 24.97H129.04C128.885 23.3618 128.178 21.8567 127.04 20.71C126.454 20.1502 125.762 19.7132 125.005 19.4247C124.247 19.1362 123.44 19.002 122.63 19.03C120.965 18.9776 119.345 19.5809 118.12 20.71V20.71C116.922 21.8482 116.149 23.362 115.93 25L115.98 24.97Z" fill="#50C7E4"/>
<path d="M123.16 37.3199C121.232 37.3504 119.33 36.8782 117.64 35.9499C116.033 35.0476 114.71 33.7142 113.82 32.0999C112.892 30.4065 112.42 28.5009 112.45 26.5699C112.418 24.6389 112.861 22.7295 113.74 21.0099C114.562 19.4188 115.813 18.0889 117.35 17.1699C118.941 16.2376 120.757 15.7602 122.6 15.7899C124.388 15.7574 126.15 16.2212 127.69 17.1299C129.162 18.0266 130.357 19.3145 131.14 20.8499C131.967 22.5102 132.382 24.3453 132.35 26.1999C132.36 26.444 132.318 26.6874 132.229 26.9147C132.139 27.1419 132.004 27.348 131.83 27.5199C131.471 27.849 130.997 28.0248 130.51 28.0099H116.24C116.465 29.5455 117.21 30.9574 118.35 32.0099C119.671 33.1856 121.393 33.8086 123.16 33.7499C124.008 33.7477 124.85 33.6023 125.65 33.3199C126.378 33.0967 127.057 32.737 127.65 32.2599C127.981 31.961 128.406 31.7873 128.852 31.769C129.298 31.7508 129.736 31.8891 130.09 32.1599C130.301 32.3304 130.472 32.545 130.591 32.7886C130.71 33.0321 130.775 33.2988 130.78 33.5699C130.78 33.8041 130.729 34.0354 130.631 34.2479C130.532 34.4603 130.389 34.6487 130.21 34.7999C129.24 35.5933 128.136 36.2063 126.95 36.6099C125.738 37.0679 124.455 37.3083 123.16 37.3199V37.3199ZM122.6 16.8199C120.943 16.7938 119.31 17.2227 117.88 18.0599C116.503 18.8822 115.384 20.0739 114.65 21.4999C113.854 23.0697 113.452 24.81 113.48 26.5699C113.458 28.3153 113.885 30.037 114.72 31.5699C115.518 33.016 116.706 34.2082 118.15 35.0099C119.68 35.8528 121.404 36.2803 123.15 36.2499C124.318 36.2332 125.475 36.0168 126.57 35.6099C127.638 35.243 128.633 34.6913 129.51 33.9799C129.579 33.9272 129.635 33.859 129.673 33.7809C129.711 33.7028 129.731 33.6169 129.73 33.5299C129.725 33.4121 129.694 33.2967 129.641 33.1915C129.587 33.0863 129.512 32.9937 129.42 32.9199C129.249 32.7999 129.04 32.7441 128.832 32.7624C128.623 32.7807 128.428 32.8719 128.28 33.0199C127.601 33.5791 126.82 34.0004 125.98 34.2599C125.07 34.5775 124.114 34.743 123.15 34.7499C121.128 34.812 119.16 34.0961 117.65 32.7499C116.169 31.3952 115.267 29.5223 115.13 27.5199L115.07 26.9499H130.5C130.61 26.9588 130.72 26.9456 130.825 26.9113C130.93 26.877 131.027 26.8221 131.11 26.7499C131.181 26.674 131.236 26.5841 131.27 26.4859C131.304 26.3878 131.318 26.2836 131.31 26.1799C131.341 24.4917 130.963 22.8211 130.21 21.3099C129.524 19.939 128.463 18.7911 127.15 17.9999C125.768 17.2066 124.193 16.812 122.6 16.8599V16.8199ZM129.76 25.6499H115.12L115.21 25.0599C115.424 23.2112 116.272 21.4938 117.61 20.1999C118.964 18.9406 120.762 18.2684 122.61 18.3299C123.51 18.2993 124.406 18.45 125.246 18.773C126.086 19.0959 126.853 19.5846 127.5 20.2099C128.794 21.5176 129.578 23.2449 129.71 25.0799L129.76 25.6499ZM116.34 24.6499H128.6C128.403 23.2609 127.761 21.9733 126.77 20.9799C126.217 20.449 125.563 20.0346 124.846 19.7615C124.13 19.4883 123.366 19.362 122.6 19.3899C121.02 19.3352 119.481 19.9066 118.32 20.9799C117.294 21.9712 116.602 23.2574 116.34 24.6599V24.6499Z" fill="#50C7E4"/>
<path d="M150.31 17.65C151.838 18.5062 153.098 19.7698 153.95 21.3C154.851 22.923 155.309 24.7541 155.28 26.61V34.12C155.304 35.9791 154.853 37.8137 153.97 39.45C153.129 41.0161 151.873 42.3204 150.34 43.22C148.759 44.1499 146.954 44.6273 145.12 44.6C143.395 44.6279 141.685 44.2655 140.12 43.54C138.67 42.8332 137.398 41.8076 136.4 40.54C136.187 40.3083 136.069 40.0047 136.07 39.69C136.066 39.4931 136.112 39.2985 136.203 39.1239C136.294 38.9492 136.427 38.8 136.59 38.69C136.826 38.5225 137.11 38.4349 137.4 38.44C137.627 38.4436 137.851 38.4974 138.055 38.5977C138.259 38.698 138.438 38.8422 138.58 39.02C139.318 39.9631 140.276 40.7115 141.37 41.2C142.577 41.7282 143.883 41.9908 145.2 41.97C146.515 41.9903 147.809 41.64 148.933 40.9591C150.058 40.2782 150.968 39.2942 151.56 38.12C152.232 36.8338 152.576 35.4012 152.56 33.95V32.32C151.85 33.6917 150.765 34.8329 149.43 35.61C148.035 36.4225 146.444 36.8375 144.83 36.81C143.034 36.8377 141.263 36.3855 139.7 35.5C138.202 34.646 136.978 33.3836 136.17 31.86C135.306 30.2361 134.869 28.4192 134.9 26.58C134.867 24.7249 135.322 22.8938 136.22 21.27C137.08 19.7387 138.346 18.4754 139.88 17.62C141.5 16.7661 143.304 16.3198 145.135 16.3198C146.966 16.3198 148.77 16.7661 150.39 17.62L150.31 17.65ZM148.87 33.32C149.989 32.6777 150.907 31.7357 151.52 30.6C152.151 29.377 152.48 28.021 152.48 26.645C152.48 25.269 152.151 23.913 151.52 22.69C150.907 21.5491 149.99 20.6006 148.87 19.95C147.712 19.2725 146.391 18.9266 145.05 18.95C143.693 18.9241 142.355 19.2699 141.18 19.95C140.064 20.602 139.15 21.5504 138.54 22.69C137.909 23.913 137.58 25.269 137.58 26.645C137.58 28.021 137.909 29.377 138.54 30.6C139.149 31.735 140.064 32.6771 141.18 33.32C142.358 33.9917 143.694 34.3369 145.05 34.32C146.39 34.3348 147.709 33.9895 148.87 33.32V33.32Z" fill="#51C6E3"/>
<path d="M145.12 44.7799C143.353 44.809 141.602 44.4363 140 43.6899C138.531 42.9898 137.242 41.9638 136.23 40.6899C136.103 40.5493 136.006 40.3833 135.948 40.2029C135.889 40.0225 135.868 39.8318 135.888 39.643C135.908 39.4543 135.967 39.2719 136.063 39.1077C136.158 38.9434 136.286 38.8011 136.44 38.6899C136.678 38.5157 136.96 38.4129 137.254 38.3934C137.548 38.3739 137.841 38.4386 138.1 38.58C138.328 38.6887 138.526 38.8497 138.68 39.05C139.408 39.9602 140.34 40.6864 141.4 41.17C142.585 41.6871 143.867 41.9429 145.16 41.92C146.443 41.9413 147.706 41.6008 148.804 40.9376C149.902 40.2743 150.792 39.3152 151.37 38.17C152.009 36.9027 152.328 35.4987 152.3 34.08V33.08C151.591 34.2313 150.609 35.1896 149.44 35.8699C148.016 36.6935 146.395 37.1152 144.75 37.0899C142.922 37.1204 141.12 36.6612 139.53 35.7599C138.006 34.8849 136.759 33.5994 135.93 32.05C135.057 30.3999 134.613 28.5566 134.64 26.6899C134.613 24.8032 135.078 22.9419 135.99 21.2899C136.865 19.7314 138.157 18.4469 139.72 17.58C141.363 16.7071 143.195 16.2506 145.055 16.2506C146.915 16.2506 148.747 16.7071 150.39 17.58C151.948 18.4477 153.232 19.7325 154.1 21.2899C155.017 22.94 155.482 24.8026 155.45 26.6899V34.2C155.471 36.0898 155.013 37.9543 154.12 39.6199C153.262 41.209 151.986 42.5333 150.43 43.45C148.814 44.3674 146.978 44.8272 145.12 44.7799V44.7799ZM137.36 38.67C137.105 38.6692 136.856 38.7497 136.65 38.8999C136.517 38.9897 136.408 39.1102 136.331 39.2512C136.255 39.3922 136.213 39.5496 136.21 39.71C136.207 39.9801 136.307 40.2412 136.49 40.4399C137.473 41.6875 138.728 42.6933 140.16 43.3799C141.724 44.1084 143.435 44.4677 145.16 44.4299C146.965 44.4528 148.742 43.9825 150.3 43.0699C151.799 42.1803 153.029 40.9018 153.86 39.3699C154.723 37.7559 155.163 35.9499 155.14 34.1199V26.61C155.167 24.7834 154.719 22.9812 153.84 21.3799C152.997 19.8817 151.758 18.6434 150.26 17.8C148.67 16.9542 146.896 16.5119 145.095 16.5119C143.294 16.5119 141.52 16.9542 139.93 17.8C138.425 18.6334 137.182 19.8695 136.34 21.3699C135.451 22.9676 134.999 24.7717 135.03 26.5999C135.002 28.4109 135.432 30.1996 136.28 31.8C137.082 33.2894 138.284 34.5256 139.75 35.3699C141.275 36.2303 142.999 36.6751 144.75 36.6599C146.333 36.6847 147.892 36.2767 149.26 35.4799C150.567 34.7209 151.629 33.6035 152.32 32.2599L152.65 31.64V33.9999C152.666 35.4767 152.322 36.9351 151.65 38.2499C151.042 39.4522 150.109 40.4592 148.956 41.1559C147.803 41.8527 146.477 42.211 145.13 42.1899C143.788 42.2127 142.457 41.9431 141.23 41.3999C140.111 40.9018 139.13 40.1401 138.37 39.1799C138.249 39.0211 138.091 38.8941 137.91 38.8099C137.74 38.7217 137.552 38.6738 137.36 38.67V38.67ZM145.05 34.4399C143.668 34.461 142.305 34.116 141.1 33.4399C139.951 32.7822 139.008 31.8157 138.38 30.6499C137.736 29.4006 137.4 28.0154 137.4 26.61C137.4 25.2045 137.736 23.8193 138.38 22.5699C139.014 21.4055 139.954 20.4371 141.1 19.77C142.302 19.1009 143.655 18.7498 145.03 18.7498C146.405 18.7498 147.758 19.1009 148.96 19.77C150.103 20.4399 151.044 21.4076 151.68 22.5699C152.317 23.8212 152.65 25.2056 152.65 26.61C152.65 28.0143 152.317 29.3986 151.68 30.6499C151.049 31.8135 150.107 32.7793 148.96 33.4399V33.4399C147.768 34.1123 146.419 34.4573 145.05 34.4399V34.4399ZM145.05 19.0999C143.723 19.0839 142.416 19.4296 141.27 20.0999C140.182 20.7375 139.29 21.6609 138.69 22.77C138.073 23.9665 137.75 25.2935 137.75 26.64C137.75 27.9864 138.073 29.3134 138.69 30.5099C139.288 31.6181 140.181 32.5388 141.27 33.17C142.425 33.7931 143.717 34.1194 145.03 34.1194C146.343 34.1194 147.635 33.7931 148.79 33.17V33.17C149.879 32.5388 150.772 31.6181 151.37 30.5099C151.981 29.3114 152.3 27.9853 152.3 26.64C152.3 25.2946 151.981 23.9685 151.37 22.77C150.77 21.6609 149.878 20.7375 148.79 20.0999C147.657 19.4333 146.364 19.0876 145.05 19.0999Z" fill="#50C7E4"/>
<path d="M145.12 45.1199C143.301 45.1484 141.5 44.7656 139.85 43.9999C138.332 43.2714 137.001 42.204 135.96 40.8799C135.672 40.5589 135.515 40.1413 135.52 39.71C135.522 39.4432 135.587 39.1807 135.711 38.9442C135.834 38.7077 136.012 38.504 136.23 38.3499C136.516 38.1398 136.855 38.0143 137.208 37.9878C137.562 37.9612 137.916 38.0348 138.23 38.2C138.511 38.3318 138.752 38.5353 138.93 38.7899C139.627 39.6518 140.518 40.337 141.53 40.7899C142.668 41.2862 143.899 41.5317 145.14 41.5099C146.36 41.5243 147.559 41.1976 148.604 40.5669C149.648 39.9361 150.495 39.0263 151.05 37.9399C151.649 36.7388 151.955 35.4123 151.94 34.0699C151.283 34.8725 150.487 35.5501 149.59 36.0699C148.115 36.9268 146.435 37.3658 144.73 37.3399C142.843 37.3647 140.983 36.8885 139.34 35.96C137.761 35.0548 136.469 33.7242 135.61 32.1199C134.711 30.417 134.253 28.5156 134.28 26.5899C134.249 24.6425 134.732 22.7213 135.68 21.02C136.581 19.407 137.915 18.0772 139.53 17.1799C141.224 16.2824 143.113 15.8132 145.03 15.8132C146.947 15.8132 148.836 16.2824 150.53 17.1799C152.14 18.0812 153.469 19.4103 154.37 21.02C155.311 22.7238 155.79 24.6439 155.76 26.5899V34.0999C155.781 36.0458 155.31 37.9653 154.39 39.6799C153.507 41.335 152.19 42.718 150.58 43.6799C148.923 44.6439 147.037 45.1414 145.12 45.1199V45.1199ZM137.36 39.0099C137.173 39.0113 136.991 39.0707 136.84 39.1799C136.751 39.2369 136.678 39.3153 136.627 39.4079C136.577 39.5005 136.55 39.6044 136.55 39.71C136.548 39.8025 136.565 39.8944 136.599 39.9803C136.634 40.0662 136.685 40.1443 136.75 40.21C137.7 41.4251 138.919 42.4039 140.31 43.0699C141.817 43.7616 143.462 44.1035 145.12 44.0699C146.875 44.1012 148.605 43.6479 150.12 42.7599C151.567 41.9008 152.755 40.6675 153.56 39.1899C154.394 37.6244 154.821 35.8738 154.8 34.0999V26.5899C154.83 24.8221 154.395 23.0774 153.54 21.5299C152.732 20.0823 151.538 18.8878 150.09 18.08C148.559 17.2401 146.836 16.8128 145.09 16.8399C143.345 16.8178 141.623 17.2448 140.09 18.08C138.641 18.8889 137.443 20.0829 136.63 21.5299C135.78 23.079 135.349 24.8232 135.38 26.5899C135.355 28.3308 135.767 30.0501 136.58 31.5899C137.349 33.0295 138.506 34.2248 139.92 35.0399C141.405 35.8749 143.086 36.2994 144.79 36.27C146.312 36.2991 147.812 35.9118 149.13 35.1499C150.379 34.418 151.395 33.3465 152.06 32.0599L153.06 30.2V33.96C153.09 35.4894 152.747 37.0032 152.06 38.3699C151.423 39.6269 150.446 40.6801 149.241 41.4101C148.035 42.1401 146.649 42.5177 145.24 42.4999C143.862 42.5144 142.498 42.2313 141.24 41.67C140.064 41.1552 139.034 40.3583 138.24 39.3499C138.149 39.2325 138.033 39.1369 137.9 39.0699C137.729 39.0005 137.542 38.9797 137.36 39.0099ZM145.05 34.7799C143.609 34.8139 142.185 34.4691 140.92 33.7799C139.72 33.0853 138.737 32.0709 138.08 30.8499C137.41 29.5513 137.06 28.1112 137.06 26.6499C137.06 25.1886 137.41 23.7486 138.08 22.45C138.739 21.2281 139.722 20.211 140.92 19.5099C142.178 18.8148 143.592 18.4502 145.03 18.4502C146.468 18.4502 147.882 18.8148 149.14 19.5099C150.338 20.211 151.321 21.2281 151.98 22.45C152.644 23.7523 152.99 25.1932 152.99 26.6549C152.99 28.1167 152.644 29.5576 151.98 30.86C151.316 32.0764 150.33 33.0866 149.13 33.7799C147.882 34.4667 146.474 34.8117 145.05 34.7799V34.7799ZM145.05 19.4399C143.789 19.4167 142.545 19.7346 141.45 20.36C140.412 20.9682 139.561 21.8504 138.99 22.9099C138.405 24.0574 138.1 25.3271 138.1 26.615C138.1 27.9029 138.405 29.1725 138.99 30.3199C139.555 31.3724 140.404 32.2455 141.44 32.8399C142.542 33.4368 143.776 33.7495 145.03 33.7495C146.284 33.7495 147.518 33.4368 148.62 32.8399C149.654 32.2425 150.502 31.3702 151.07 30.3199C151.655 29.1725 151.96 27.9029 151.96 26.615C151.96 25.3271 151.655 24.0574 151.07 22.9099C150.499 21.8504 149.648 20.9682 148.61 20.36C147.528 19.7388 146.298 19.421 145.05 19.4399V19.4399Z" fill="#50C7E4"/>
<path d="M175.16 17.69C176.698 18.5692 177.969 19.8476 178.84 21.39C179.742 22.9802 180.204 24.7819 180.18 26.61V35.26C180.186 35.4453 180.154 35.6298 180.085 35.8019C180.016 35.9741 179.912 36.13 179.78 36.26C179.649 36.3916 179.493 36.4957 179.321 36.5662C179.15 36.6366 178.966 36.6719 178.78 36.67C178.408 36.6758 178.049 36.5358 177.78 36.28C177.645 36.1513 177.539 35.9957 177.469 35.8235C177.398 35.6512 177.365 35.4661 177.37 35.28V33.07C176.515 34.2423 175.395 35.195 174.1 35.85C172.74 36.5251 171.238 36.8678 169.72 36.85C167.963 36.8783 166.232 36.4278 164.711 35.547C163.191 34.6662 161.939 33.3882 161.09 31.85C160.212 30.2555 159.764 28.46 159.79 26.64C159.765 24.8119 160.228 23.0102 161.13 21.42C161.998 19.8755 163.27 18.5964 164.81 17.72C166.404 16.8411 168.195 16.3801 170.015 16.3801C171.835 16.3801 173.626 16.8411 175.22 17.72L175.16 17.69ZM173.74 33.32C174.864 32.6681 175.787 31.7204 176.41 30.58C177.053 29.3736 177.39 28.0273 177.39 26.66C177.39 25.2927 177.053 23.9464 176.41 22.74C175.779 21.6002 174.858 20.6479 173.74 19.98C172.595 19.3068 171.288 18.9608 169.96 18.98C168.637 18.9623 167.334 19.3034 166.189 19.9673C165.045 20.6311 164.102 21.5928 163.46 22.75C162.823 23.9585 162.491 25.304 162.491 26.67C162.491 28.036 162.823 29.3814 163.46 30.59C164.087 31.7337 165.018 32.6819 166.15 33.33C167.308 33.9982 168.623 34.3435 169.96 34.33C171.288 34.342 172.595 33.9929 173.74 33.32V33.32Z" fill="#51C6E3"/>
<path d="M169.66 37.01C167.852 37.0306 166.072 36.5606 164.51 35.65C162.987 34.7468 161.733 33.4519 160.88 31.9C159.986 30.2815 159.528 28.4588 159.55 26.61C159.531 24.7503 160.004 22.9185 160.92 21.3C161.806 19.733 163.098 18.4339 164.66 17.54C166.28 16.6417 168.102 16.1704 169.955 16.1704C171.808 16.1704 173.63 16.6417 175.25 17.54V17.54C176.81 18.4367 178.102 19.7351 178.99 21.3C179.906 22.9185 180.379 24.7503 180.36 26.61V35.26C180.363 35.4666 180.323 35.6716 180.244 35.8624C180.165 36.0533 180.048 36.226 179.9 36.37C179.751 36.5221 179.571 36.6416 179.373 36.7207C179.175 36.7999 178.963 36.8372 178.75 36.83C178.325 36.841 177.913 36.6869 177.6 36.4C177.447 36.2533 177.327 36.0758 177.248 35.8793C177.169 35.6828 177.132 35.4718 177.14 35.26V33.56C176.321 34.5682 175.299 35.3927 174.14 35.98C172.752 36.68 171.215 37.0334 169.66 37.01V37.01ZM169.95 16.5201C168.16 16.4974 166.395 16.9531 164.84 17.84C163.33 18.7035 162.079 19.9573 161.22 21.47C160.367 23.0453 159.92 24.8085 159.92 26.6C159.92 28.3916 160.367 30.1548 161.22 31.73C162.052 33.2459 163.28 34.5066 164.774 35.377C166.268 36.2473 167.971 36.6943 169.7 36.67C171.193 36.6843 172.667 36.3415 174 35.67C175.27 35.0297 176.37 34.0976 177.21 32.95L177.53 32.51V35.26C177.521 35.4234 177.547 35.5868 177.607 35.7389C177.668 35.8909 177.761 36.0278 177.88 36.14C178.001 36.2551 178.144 36.3444 178.3 36.4029C178.457 36.4613 178.623 36.4875 178.79 36.48C178.956 36.4885 179.122 36.4616 179.277 36.4013C179.433 36.341 179.573 36.2485 179.69 36.13C179.807 36.0179 179.899 35.8826 179.961 35.7328C180.023 35.5831 180.054 35.4221 180.05 35.26V26.61C180.066 24.8109 179.611 23.039 178.73 21.47C177.871 19.9573 176.62 18.7035 175.11 17.84C173.54 16.9449 171.757 16.489 169.95 16.5201V16.5201ZM169.95 34.44C168.587 34.4626 167.243 34.1171 166.06 33.44C164.903 32.7733 163.952 31.8012 163.31 30.63C162.653 29.399 162.31 28.0252 162.31 26.63C162.31 25.2348 162.653 23.8611 163.31 22.63C163.954 21.4552 164.904 20.4771 166.06 19.8C167.243 19.1235 168.587 18.778 169.95 18.8C171.299 18.7798 172.628 19.1287 173.793 19.809C174.958 20.4893 175.915 21.4752 176.56 22.66C177.217 23.8911 177.56 25.2648 177.56 26.66C177.56 28.0552 177.217 29.429 176.56 30.66C175.923 31.828 174.979 32.7996 173.83 33.47C172.648 34.1386 171.307 34.4739 169.95 34.44V34.44ZM169.95 19.1C168.659 19.082 167.387 19.4147 166.271 20.0628C165.154 20.711 164.235 21.6501 163.61 22.78C162.987 23.9604 162.661 25.2751 162.661 26.61C162.661 27.945 162.987 29.2597 163.61 30.44C164.224 31.5549 165.129 32.4814 166.23 33.12C167.359 33.7781 168.643 34.1233 169.95 34.12C171.254 34.1259 172.536 33.7805 173.66 33.12V33.12C174.753 32.4786 175.652 31.5523 176.26 30.44C176.884 29.2597 177.209 27.945 177.209 26.61C177.209 25.2751 176.884 23.9604 176.26 22.78C175.649 21.6452 174.736 20.701 173.623 20.0517C172.51 19.4024 171.239 19.073 169.95 19.1V19.1Z" fill="#50C7E4"/>
<path d="M169.66 37.3199C167.81 37.3408 165.988 36.86 164.39 35.9285C162.791 34.9971 161.474 33.6498 160.58 32.0299C159.668 30.351 159.19 28.4706 159.19 26.5599C159.19 24.6493 159.668 22.7689 160.58 21.0899C161.499 19.4702 162.835 18.1268 164.45 17.2C166.123 16.2755 168.003 15.7905 169.915 15.7905C171.827 15.7905 173.707 16.2755 175.38 17.2C176.995 18.1268 178.331 19.4702 179.25 21.0899C180.194 22.7608 180.68 24.6511 180.66 26.5699V35.2199C180.663 35.4718 180.616 35.7217 180.522 35.9552C180.427 36.1886 180.287 36.401 180.11 36.58C179.729 36.9278 179.231 37.1206 178.715 37.1206C178.199 37.1206 177.701 36.9278 177.32 36.58C177.135 36.402 176.99 36.1872 176.893 35.9495C176.797 35.7118 176.751 35.4564 176.76 35.2V34.39C176.022 35.1365 175.168 35.758 174.23 36.2299C172.815 36.9511 171.248 37.3247 169.66 37.3199V37.3199ZM169.95 16.8199C168.219 16.7995 166.513 17.2414 165.01 18.0999C163.55 18.928 162.344 20.138 161.52 21.5999C160.658 23.1239 160.217 24.8494 160.24 26.5999C160.214 28.3458 160.641 30.0686 161.48 31.5999C162.284 33.0596 163.47 34.2728 164.911 35.1096C166.352 35.9464 167.994 36.3752 169.66 36.3499C171.099 36.3644 172.521 36.0388 173.81 35.3999C175.029 34.7782 176.087 33.8812 176.9 32.7799L177.83 31.49V35.2899C177.823 35.406 177.841 35.5221 177.882 35.6307C177.924 35.7394 177.988 35.8379 178.07 35.92C178.254 36.0858 178.492 36.1776 178.74 36.1776C178.988 36.1776 179.226 36.0858 179.41 35.92C179.496 35.8417 179.563 35.7456 179.608 35.6386C179.653 35.5315 179.674 35.416 179.67 35.3V26.6499C179.693 24.8994 179.252 23.1739 178.39 21.6499C177.563 20.1901 176.357 18.9808 174.9 18.1499C173.394 17.2866 171.685 16.8413 169.95 16.86V16.8199ZM169.95 34.74C168.526 34.7542 167.125 34.3882 165.89 33.6799C164.68 32.9806 163.684 31.964 163.01 30.74C162.327 29.4561 161.97 28.0241 161.97 26.5699C161.97 25.1158 162.327 23.6838 163.01 22.3999C163.696 21.1645 164.699 20.1349 165.917 19.4181C167.135 18.7013 168.522 18.3232 169.935 18.3232C171.348 18.3232 172.735 18.7013 173.953 19.4181C175.171 20.1349 176.174 21.1645 176.86 22.3999C177.543 23.6838 177.9 25.1158 177.9 26.5699C177.9 28.0241 177.543 29.4561 176.86 30.74C176.191 31.958 175.207 32.9735 174.01 33.6799C172.779 34.4022 171.377 34.782 169.95 34.7799V34.74ZM169.95 19.3999C168.728 19.3912 167.526 19.7116 166.47 20.3275C165.415 20.9433 164.544 21.8318 163.95 22.8999C163.353 24.031 163.041 25.2908 163.041 26.5699C163.041 27.8491 163.353 29.1088 163.95 30.24C164.533 31.3011 165.398 32.1802 166.45 32.7799C167.53 33.3861 168.747 33.7045 169.985 33.7045C171.223 33.7045 172.44 33.3861 173.52 32.7799C174.562 32.1697 175.419 31.2885 176 30.2299C176.597 29.1006 176.909 27.8425 176.909 26.5649C176.909 25.2874 176.597 24.0293 176 22.8999C175.42 21.8356 174.563 20.9476 173.52 20.33C172.434 19.7109 171.199 19.4029 169.95 19.4399V19.3999Z" fill="#50C7E4"/>
<path d="M186.43 34.87C185.447 33.5509 184.949 31.9334 185.02 30.29V9.31998C185.013 9.13462 185.045 8.9499 185.114 8.77768C185.183 8.60546 185.287 8.44955 185.42 8.31998C185.694 8.07192 186.05 7.93457 186.42 7.93457C186.79 7.93457 187.146 8.07192 187.42 8.31998C187.546 8.4533 187.645 8.61031 187.71 8.78195C187.775 8.95359 187.806 9.13646 187.8 9.31998V30.32C187.762 31.2248 187.988 32.121 188.45 32.9C188.608 33.1965 188.843 33.4456 189.129 33.6213C189.416 33.7971 189.744 33.8933 190.08 33.9H191C191.168 33.8932 191.336 33.9248 191.49 33.9924C191.644 34.06 191.781 34.1617 191.89 34.29C192.119 34.5716 192.236 34.9275 192.22 35.29C192.223 35.4805 192.184 35.6693 192.104 35.8424C192.024 36.0155 191.907 36.1685 191.76 36.29C191.42 36.5605 190.994 36.699 190.56 36.68H190.08C189.372 36.6882 188.672 36.5285 188.037 36.2139C187.403 35.8993 186.852 35.4387 186.43 34.87V34.87Z" fill="#51C6E3"/>
<path d="M190.52 36.83H190.04C189.307 36.8438 188.581 36.6833 187.922 36.3616C187.263 36.04 186.69 35.5665 186.25 34.98C185.238 33.6315 184.722 31.9749 184.79 30.29V9.32002C184.783 9.10845 184.82 8.89774 184.9 8.70143C184.979 8.50512 185.098 8.32752 185.25 8.18001C185.471 7.95505 185.754 7.80175 186.063 7.74007C186.372 7.67839 186.693 7.71119 186.983 7.83418C187.273 7.95718 187.52 8.16467 187.69 8.42967C187.861 8.69468 187.948 9.00492 187.94 9.32002V30.32C187.899 31.1883 188.111 32.0498 188.55 32.8C188.694 33.0721 188.908 33.3008 189.17 33.4625C189.432 33.6242 189.732 33.7131 190.04 33.72H190.96C191.149 33.7171 191.335 33.7549 191.508 33.8308C191.681 33.9067 191.835 34.019 191.96 34.16C192.218 34.4785 192.349 34.8807 192.33 35.29C192.338 35.5074 192.295 35.7236 192.205 35.9214C192.114 36.1193 191.979 36.2934 191.81 36.43C191.439 36.7089 190.983 36.8503 190.52 36.83ZM186.36 8.10002C186.038 8.09077 185.725 8.2094 185.49 8.43001C185.372 8.54495 185.279 8.6838 185.219 8.83727C185.159 8.99074 185.132 9.15532 185.14 9.32002V30.32C185.074 31.9242 185.561 33.5024 186.52 34.79C186.929 35.3344 187.461 35.7741 188.073 36.0731C188.685 36.372 189.359 36.5218 190.04 36.51H190.52C190.912 36.53 191.299 36.4095 191.61 36.17C191.736 36.0616 191.837 35.9263 191.904 35.7741C191.972 35.6218 192.004 35.4565 192 35.29C192.02 34.9643 191.916 34.643 191.71 34.39C191.619 34.2808 191.504 34.1942 191.374 34.1369C191.244 34.0797 191.102 34.0533 190.96 34.06H190.04C189.675 34.0543 189.319 33.9523 189.006 33.7644C188.694 33.5765 188.436 33.3094 188.26 32.99C187.781 32.1843 187.548 31.2563 187.59 30.32V9.32002C187.6 9.15625 187.576 8.99214 187.517 8.83873C187.459 8.68532 187.369 8.54616 187.252 8.43059C187.136 8.31502 186.996 8.22573 186.842 8.16872C186.688 8.1117 186.524 8.08828 186.36 8.10002V8.10002Z" fill="#50C7E4"/>
<path d="M190.52 37.17H190.04C189.254 37.1794 188.476 37.0031 187.771 36.6556C187.065 36.3081 186.452 35.7991 185.98 35.17C184.923 33.7785 184.376 32.0664 184.43 30.32V9.31995C184.422 9.06217 184.468 8.80562 184.565 8.56641C184.661 8.3272 184.806 8.11049 184.99 7.92994C185.353 7.58265 185.838 7.39224 186.34 7.39994C186.595 7.3901 186.849 7.43306 187.086 7.52607C187.324 7.61907 187.539 7.76015 187.72 7.94043C187.9 8.12072 188.041 8.33631 188.134 8.5737C188.227 8.8111 188.27 9.06517 188.26 9.31995V30.32C188.222 31.1213 188.417 31.9164 188.82 32.61C188.932 32.8335 189.103 33.0223 189.315 33.1562C189.526 33.2901 189.77 33.3639 190.02 33.3699H190.94C191.182 33.3645 191.423 33.4128 191.644 33.5114C191.865 33.6099 192.062 33.7563 192.22 33.9399C192.53 34.3196 192.691 34.8 192.67 35.29C192.676 35.5579 192.621 35.8237 192.51 36.0677C192.4 36.3118 192.235 36.5278 192.03 36.7C191.596 37.0264 191.063 37.1924 190.52 37.17V37.17ZM186.36 8.43994C186.244 8.43602 186.129 8.45522 186.021 8.49643C185.913 8.53764 185.814 8.60003 185.73 8.67994C185.644 8.76177 185.577 8.86154 185.534 8.97214C185.491 9.08274 185.472 9.20147 185.48 9.31995V30.32C185.413 31.8485 185.876 33.3533 186.79 34.58C187.169 35.0817 187.66 35.4871 188.225 35.7634C188.79 36.0397 189.411 36.1789 190.04 36.17H190.52C190.83 36.19 191.137 36.0938 191.38 35.8999C191.473 35.8286 191.547 35.7359 191.595 35.6296C191.644 35.5233 191.666 35.4067 191.66 35.29C191.676 35.0452 191.601 34.8032 191.45 34.61C191.39 34.5408 191.314 34.4867 191.229 34.4519C191.144 34.4172 191.052 34.4028 190.96 34.4099H190.04C189.618 34.4014 189.205 34.2836 188.843 34.0681C188.48 33.8525 188.179 33.5465 187.97 33.1799C187.461 32.3154 187.211 31.3226 187.25 30.32V9.31995C187.261 9.20077 187.245 9.08064 187.204 8.9682C187.163 8.85576 187.098 8.7538 187.013 8.66965C186.928 8.5855 186.825 8.52126 186.712 8.48154C186.599 8.44182 186.479 8.42762 186.36 8.43994V8.43994Z" fill="#50C7E4"/>
<path d="M97.37 37.1899C98.3696 37.1899 99.18 36.3796 99.18 35.3799C99.18 34.3803 98.3696 33.5699 97.37 33.5699C96.3704 33.5699 95.56 34.3803 95.56 35.3799C95.56 36.3796 96.3704 37.1899 97.37 37.1899Z" fill="#51C6E3"/>
</g>
<defs>
<clipPath id="clip0">
<rect width="197.04" height="53.81" fill="white"/>
</clipPath>
</defs>
</svg>
